<svg xmlns="http://www.w3.org/2000/svg" style="display:none;">
    <symbol id="logo" viewBox="0 0 24 24" fill="none" stroke="currentColor" stroke-width="2" stroke-linecap="round" stroke-linejoin="round">
        <path d="M3.85 8.62a4 4 0 0 1 4.78-4.77 4 4 0 0 1 6.74 0 4 4 0 0 1 4.78 4.78 4 4 0 0 1 0 6.74 4 4 0 0 1-4.77 4.78 4 4 0 0 1-6.75 0 4 4 0 0 1-4.78-4.77 4 4 0 0 1 0-6.76Z"/><path d="M9 16h5"/><path d="M9 12h5a2 2 0 1 0 0-4h-3v9"/>
    </symbol>
    <symbol id="profil" viewBox="0 0 24 24" fill="none" stroke="currentColor" stroke-width="2" stroke-linecap="round" stroke-linejoin="round">
        <path d="M20 13c0 5-3.5 7.5-7.66 8.95a1 1 0 0 1-.67-.01C7.5 20.5 4 18 4 13V6a1 1 0 0 1 1-1c2 0 4.5-1.2 6.24-2.72a1.17 1.17 0 0 1 1.52 0C14.51 3.81 17 5 19 5a1 1 0 0 1 1 1z"/><path d="M6.376 18.91a6 6 0 0 1 11.249.003"/><circle cx="12" cy="11" r="4"/>
    </symbol>
    <symbol id="owner" viewBox="0 0 24 24" fill="none" stroke="currentColor" stroke-width="2" stroke-linecap="round" stroke-linejoin="round">
        <path d="M5 17H4a2 2 0 0 1-2-2V5a2 2 0 0 1 2-2h16a2 2 0 0 1 2 2v10a2 2 0 0 1-2 2h-1"/><path d="m12 15 5 6H7Z"/>
    </symbol>
    <symbol id="logout" viewBox="0 0 24 24" fill="none" stroke="currentColor" stroke-width="2" stroke-linecap="round" stroke-linejoin="round">
        <path d="m16 17 5-5-5-5"/><path d="M21 12H9"/><path d="M9 21H5a2 2 0 0 1-2-2V5a2 2 0 0 1 2-2h4"/>
    </symbol>
    <symbol id="panel-left" viewBox="0 0 24 24" fill="none" stroke="currentColor" stroke-width="2" stroke-linecap="round" stroke-linejoin="round">
        <rect width="18" height="18" x="3" y="3" rx="2"/><path d="M9 3v18"/>
    </symbol>
    <symbol id="new" viewBox="0 0 24 24" fill="none" stroke="currentColor" stroke-width="2" stroke-linecap="round" stroke-linejoin="round">
        <path d="M3.85 8.62a4 4 0 0 1 4.78-4.77 4 4 0 0 1 6.74 0 4 4 0 0 1 4.78 4.78 4 4 0 0 1 0 6.74 4 4 0 0 1-4.77 4.78 4 4 0 0 1-6.75 0 4 4 0 0 1-4.78-4.77 4 4 0 0 1 0-6.76Z"/><line x1="12" x2="12" y1="8" y2="16"/><line x1="8" x2="16" y1="12" y2="12"/>
    </symbol>
    <symbol id="edit" viewBox="0 0 24 24" fill="none" stroke="currentColor" stroke-width="2" stroke-linecap="round" stroke-linejoin="round">
        <path d="M14.364 13.634a2 2 0 0 0-.506.854l-.837 2.87a.5.5 0 0 0 .62.62l2.87-.837a2 2 0 0 0 .854-.506l4.013-4.009a1 1 0 0 0-3.004-3.004z"/><path d="M14.487 7.858A1 1 0 0 1 14 7V2"/><path d="M20 19.645V20a2 2 0 0 1-2 2H6a2 2 0 0 1-2-2V4a2 2 0 0 1 2-2h8a2.4 2.4 0 0 1 1.704.706l2.516 2.516"/><path d="M8 18h1"/>
    </symbol>
    <symbol id="edit2" viewBox="0 0 24 24" fill="none" stroke="currentColor" stroke-width="2" stroke-linecap="round" stroke-linejoin="round">
        <path d="M12 3H5a2 2 0 0 0-2 2v14a2 2 0 0 0 2 2h14a2 2 0 0 0 2-2v-7"/><path d="M18.375 2.625a1 1 0 0 1 3 3l-9.013 9.014a2 2 0 0 1-.853.505l-2.873.84a.5.5 0 0 1-.62-.62l.84-2.873a2 2 0 0 1 .506-.852z"/>
    </symbol>
    <symbol id="dashbord" viewBox="0 0 24 24" fill="none" stroke="currentColor" stroke-width="2" stroke-linecap="round" stroke-linejoin="round">
        <rect width="7" height="9" x="3" y="3" rx="1"/><rect width="7" height="5" x="14" y="3" rx="1"/><rect width="7" height="9" x="14" y="12" rx="1"/><rect width="7" height="5" x="3" y="16" rx="1"/>
    </symbol>
    <symbol id="chevron" viewBox="0 0 24 24" fill="none" stroke="currentColor" stroke-width="2" stroke-linecap="round" stroke-linejoin="round">
        <path d="m9 18 6-6-6-6"/>
    </symbol>
   <symbol id="chevron-left" viewBox="0 0 24 24" fill="none" stroke="currentColor" stroke-width="2" stroke-linecap="round" stroke-linejoin="round">
        <path d="m15 18-6-6 6-6"/>
    </symbol>
    <symbol id="admin" viewBox="0 0 24 24" fill="none" stroke="currentColor" stroke-width="2" stroke-linecap="round">
        <path d="M20 13c0 5-3.5 7.5-7.66 8.95a1 1 0 0 1-.67-.01C7.5 20.5 4 18 4 13V6a1 1 0 0 1 1-1c2 0 4.5-1.2 6.24-2.72a1.17 1.17 0 0 1 1.52 0C14.51 3.81 17 5 19 5a1 1 0 0 1 1 1z"/>
    </symbol>
    <symbol id="parametre" viewBox="0 0 24 24" fill="none" stroke="currentColor" stroke-width="2" stroke-linecap="round" stroke-linejoin="round">
        <path d="M10.5 21H5a2 2 0 0 1-2-2V5a2 2 0 0 1 2-2h14a2 2 0 0 1 2 2v5.5"/><path d="m14.3 19.6 1-.4"/><path d="M15 3v7.5"/><path d="m15.2 16.9-.9-.3"/><path d="m16.6 21.7.3-.9"/><path d="m16.8 15.3-.4-1"/><path d="m19.1 15.2.3-.9"/><path d="m19.6 21.7-.4-1"/><path d="m20.7 16.8 1-.4"/><path d="m21.7 19.4-.9-.3"/><path d="M9 3v18"/><circle cx="18" cy="18" r="3"/>
    </symbol>
    <symbol id="caisse" viewBox="0 0 24 24" fill="none" stroke="currentColor" stroke-width="2" stroke-linecap="round" stroke-linejoin="round">
        <path d="M3.85 8.62a4 4 0 0 1 4.78-4.77 4 4 0 0 1 6.74 0 4 4 0 0 1 4.78 4.78 4 4 0 0 1 0 6.74 4 4 0 0 1-4.77 4.78 4 4 0 0 1-6.75 0 4 4 0 0 1-4.78-4.77 4 4 0 0 1 0-6.76Z"/><path d="M16 8h-6a2 2 0 1 0 0 4h4a2 2 0 1 1 0 4H8"/><path d="M12 18V6"/>
    </symbol>
    <symbol id="bilan" viewBox="0 0 24 24" fill="none" stroke="currentColor" stroke-width="2" stroke-linecap="round">
        <path d="M12 16v5"/><path d="M16 14.639V21"/><path d="M20 10.656V21"/><path d="m22 3-8.646 8.646a.5.5 0 0 1-.708 0L9.354 8.354a.5.5 0 0 0-.707 0L2 15"/><path d="M4 18.463V21"/><path d="M8 14.656V21"/>
    </symbol>
    <symbol id="paiement" viewBox="0 0 24 24" fill="none" stroke="currentColor" stroke-width="2" stroke-linecap="round">
        <path d="M11 15h2a2 2 0 1 0 0-4h-3c-.6 0-1.1.2-1.4.6L3 17"/><path d="m7 21 1.6-1.4c.3-.4.8-.6 1.4-.6h4c1.1 0 2.1-.4 2.8-1.2l4.6-4.4a2 2 0 0 0-2.75-2.91l-4.2 3.9"/><path d="m2 16 6 6"/><circle cx="16" cy="9" r="2.9"/><circle cx="6" cy="5" r="3"/>
    </symbol>
    <symbol id="demande" viewBox="0 0 24 24" fill="none" stroke="currentColor" stroke-width="2" stroke-linecap="round">
        <circle cx="5" cy="6" r="3"/><path d="M5 9v12"/><circle cx="19" cy="18" r="3"/><path d="m15 9-3-3 3-3"/><path d="M12 6h5a2 2 0 0 1 2 2v7"/>
    </symbol>
    <symbol id="produit" viewBox="0 0 24 24" fill="none" stroke="currentColor" stroke-width="2" stroke-linecap="round">
        <circle cx="8" cy="21" r="1"/><circle cx="19" cy="21" r="1"/><path d="M2.05 2.05h2l2.66 12.42a2 2 0 0 0 2 1.58h9.78a2 2 0 0 0 1.95-1.57l1.65-7.43H5.12"/>
    </symbol>
    <symbol id="fournisseur" viewBox="0 0 24 24" fill="none" stroke="currentColor" stroke-width="2" stroke-linecap="round">
        <path d="M12 3V2"/><path d="m15.4 17.4 3.2-2.8a2 2 0 1 1 2.8 2.9l-3.6 3.3c-.7.8-1.7 1.2-2.8 1.2h-4c-1.1 0-2.1-.4-2.8-1.2l-1.302-1.464A1 1 0 0 0 6.151 19H5"/><path d="M2 14h12a2 2 0 0 1 0 4h-2"/><path d="M4 10h16"/><path d="M5 10a7 7 0 0 1 14 0"/><path d="M5 14v6a1 1 0 0 1-1 1H2"/>
    </symbol>
    <symbol id="site" viewBox="0 0 24 24" fill="none" stroke="currentColor" stroke-width="2" stroke-linecap="round">
        <path d="M12 3v18"/><path d="m19 8 3 8a5 5 0 0 1-6 0zV7"/><path d="M3 7h1a17 17 0 0 0 8-2 17 17 0 0 0 8 2h1"/><path d="m5 8 3 8a5 5 0 0 1-6 0zV7"/><path d="M7 21h10"/> <!-- <circle cx="12" cy="5" r="3"/><path d="M6.5 8a2 2 0 0 0-1.905 1.46L2.1 18.5A2 2 0 0 0 4 21h16a2 2 0 0 0 1.925-2.54L19.4 9.5A2 2 0 0 0 17.48 8Z"/> -->
    </symbol>
    <symbol id="users" viewBox="0 0 24 24" fill="none" stroke="currentColor" stroke-width="2" stroke-linecap="round">
        <path d="M18 21a8 8 0 0 0-16 0"/><circle cx="10" cy="8" r="5"/><path d="M22 20c0-3.37-2-6.5-4-8a5 5 0 0 0-.45-8.3"/>
    </symbol>
    <symbol id="sync" viewBox="0 0 24 24" fill="none" stroke="currentColor" stroke-width="2" stroke-linecap="round">
        <path d="m17 18-1.535 1.605a5 5 0 0 1-8-1.5"/><path d="M17 22v-4h-4"/><path d="M20.996 15.251A4.5 4.5 0 0 0 17.495 8h-1.79a7 7 0 1 0-12.709 5.607"/><path d="M7 10v4h4"/><path d="m7 14 1.535-1.605a5 5 0 0 1 8 1.5"/>
    </symbol>
    <symbol id="buisness" viewBox="0 0 24 24" fill="none" stroke="currentColor" stroke-width="2" stroke-linecap="round">
        <path d="M10 12h4"/><path d="M10 8h4"/><path d="M14 21v-3a2 2 0 0 0-4 0v3"/><path d="M6 10H4a2 2 0 0 0-2 2v7a2 2 0 0 0 2 2h16a2 2 0 0 0 2-2V9a2 2 0 0 0-2-2h-2"/><path d="M6 21V5a2 2 0 0 1 2-2h8a2 2 0 0 1 2 2v16"/>
    </symbol>
    <symbol id="journal" viewBox="0 0 24 24" fill="none" stroke="currentColor" stroke-width="2" stroke-linecap="round" stroke-linejoin="round">
        <path d="M15 2H9a1 1 0 0 0-1 1v2a1 1 0 0 0 1 1h6a1 1 0 0 0 1-1V3a1 1 0 0 0-1-1Z"/><path d="M16 4h2a2 2 0 0 1 2 2v14a2 2 0 0 1-2 2H6a2 2 0 0 1-2-2V6a2 2 0 0 1 2-2h2"/><path d="M8 11h8"/><path d="M8 15h5"/>
    </symbol>
    <symbol id="corbeille" viewBox="0 0 24 24" fill="none" stroke="currentColor" stroke-width="2" stroke-linecap="round" stroke-linejoin="round">
        <path d="M3 6h18"/><path d="M19 6v14a2 2 0 0 1-2 2H7a2 2 0 0 1-2-2V6"/><path d="M8 6V4a2 2 0 0 1 2-2h4a2 2 0 0 1 2 2v2"/><path d="M10 11v6"/><path d="M14 11v6"/>
    </symbol>
</svg>